# xmcd
# Copyright (C) 1995-1998 Ti Kan
#
# Track frame offsets:
#       150
#       10369
#       21370
#       37547
#       50721
#       65825
#       75065
#       92080
#       99371
#       113392
#       121279
#       135958
#
# Disc length: 2044 seconds
#
# Revision: 0
# Processed by: cddbd v1.5.2PL0 Copyright (c) Steve Scherf et al.
# Submitted via: CD-Import v1.0
#
DISCID=8407fa0c
DTITLE=Kills - Midnight Boom
DYEAR=2008
DGENRE=
TTITLE0=U.r.a. Fever
TTITLE1=Cheap And Cheerful
TTITLE2=Tape Song
TTITLE3=Getting Down
TTITLE4=Last Day Of Magic
TTITLE5=Hook And Line
TTITLE6=Black Balloon
TTITLE7=M.e.x.i.c.o.
TTITLE8=Sour Cherry
TTITLE9=Alphabet Pony
TTITLE10=What New York Used To Be
TTITLE11=Goodnight Bad Morning
EXTD=
EXTT0=
EXTT1=
EXTT2=
EXTT3=
EXTT4=
EXTT5=
EXTT6=
EXTT7=
EXTT8=
EXTT9=
EXTT10=
EXTT11=
PLAYORDER=
